# xmcd
#
# Track frame offsets:
#	150
#	15065
#	30285
#	43667
#	54662
#	72142
#	82887
#	98312
#	111580
#	129330
#
# Disc length: 1931 seconds
# Revision: 4
# Processed by: cddbd v1.5.2PL0 Copyright (c) Steve Scherf et al.
# Submitted via: dBpowerAMP V12.0
#
DISCID=6907890a
DTITLE=John Starling - Waitin' on a Southern Train
DYEAR=1979
DGENRE=Country
TTITLE0=New Delhi Freight Train
TTITLE1=We Know Better
TTITLE2=Carolina Star
TTITLE3=The Other Side of Life
TTITLE4=Waitin' on a Southern Train
TTITLE5=Heart Trouble
TTITLE6=Homestead in My Heart
TTITLE7=Hey, Bottle of Whisky
TTITLE8=Those Memories of You
TTITLE9=Slow Movin' Freight Train
EXTD=
EXTT0=
EXTT1=
EXTT2=
EXTT3=
EXTT4=
EXTT5=
EXTT6=
EXTT7=
EXTT8=
EXTT9=
PLAYORDER=
